<svg width="48" height="48" viewBox="0 0 48 48" fill="none" xmlns="http://www.w3.org/2000/svg">
<circle cx="24" cy="24" r="24" fill="#FCDECE"/>
<circle cx="24" cy="24" r="23.5" stroke="#8D6153" stroke-opacity="0.15"/>
<path d="M24.1149 23.4942L24.1442 23.4997C25.6988 20.0918 27.7453 17.3185 31.0321 16.028V31.3165C31.0321 33.202 30.2539 34.955 29.0019 34.955H37.6662C36.4157 34.955 35.6377 33.2062 35.6359 31.3232L35.6359 16.028C38.9228 17.3185 40.9692 20.0918 42.5238 23.4997L42.5532 23.4942L41.2771 15.3699L35.6359 15.6475H31.0321L25.3909 15.3699L24.1149 23.4942Z" fill="#2D1A15"/>
<path d="M12.9682 15.6475H5.4469C6.62507 17.0614 7.45367 18.6866 8.30816 20.6369L14.445 35.4427L22.7042 15.6475H14.9879V15.6775C17.8389 16.4899 19.2733 22.3909 18.0313 25.6263L16.7098 28.858L13.215 20.3606C12.4194 18.5081 11.9804 16.3954 12.9682 15.6775V15.6475Z" fill="#2D1A15"/>
</svg>
